<?xml version="1.0" encoding="UTF-8" standalone="no"?>
<!-- Generator: Adobe Illustrator 23.0.2, SVG Export Plug-In . SVG Version: 6.00 Build 0)  -->

<svg
   xmlns:dc="http://purl.org/dc/elements/1.1/"
   xmlns:cc="http://creativecommons.org/ns#"
   xmlns:rdf="http://www.w3.org/1999/02/22-rdf-syntax-ns#"
   xmlns:svg="http://www.w3.org/2000/svg"
   xmlns="http://www.w3.org/2000/svg"
   xmlns:sodipodi="http://sodipodi.sourceforge.net/DTD/sodipodi-0.dtd"
   xmlns:inkscape="http://www.inkscape.org/namespaces/inkscape"
   id="Layer_1"
   x="0px"
   y="0px"
   viewBox="0 0 738 442.60001"
   xml:space="preserve"
   version="1.1"
   sodipodi:docname="crawl-nav.svg"
   width="738"
   height="442.60001"
   inkscape:version="0.92.3 (2405546, 2018-03-11)"><metadata
   id="metadata146"><rdf:RDF><cc:Work
       rdf:about=""><dc:format>image/svg+xml</dc:format><dc:type
         rdf:resource="http://purl.org/dc/dcmitype/StillImage" /><dc:title></dc:title></cc:Work></rdf:RDF></metadata><defs
   id="defs144" /><sodipodi:namedview
   pagecolor="#ffffff"
   bordercolor="#666666"
   borderopacity="1"
   objecttolerance="10"
   gridtolerance="10"
   guidetolerance="10"
   inkscape:pageopacity="0"
   inkscape:pageshadow="2"
   inkscape:window-width="1920"
   inkscape:window-height="1017"
   id="namedview142"
   showgrid="false"
   fit-margin-top="0"
   fit-margin-left="0"
   fit-margin-right="0"
   fit-margin-bottom="0"
   inkscape:zoom="0.41590909"
   inkscape:cx="119.11858"
   inkscape:cy="221.3"
   inkscape:window-x="-8"
   inkscape:window-y="-8"
   inkscape:window-maximized="1"
   inkscape:current-layer="Layer_1" />
<style
   type="text/css"
   id="style2">
	.st0{fill:#D5E0E0;}
	.st1{fill:#FFFFFF;}
	.st2{fill:#565E66;}
	.st3{fill:none;stroke:#565E66;stroke-width:6;stroke-linecap:round;stroke-linejoin:round;}
	.st4{fill:#009CEB;}
	.st5{fill:#4DBDEB;}
	.st6{fill:none;stroke:#B1B8B9;stroke-width:6;stroke-linecap:round;stroke-linejoin:round;}
	.st7{fill:none;stroke:#53BCE7;stroke-width:4;stroke-linecap:round;stroke-dasharray:8.86;}
	.st8{fill:none;stroke:#4DBDEB;stroke-width:4;stroke-linecap:round;stroke-miterlimit:10;}
	.st9{enable-background:new    ;}
	.st10{fill:#272733;}
</style>
<path
   class="st0"
   d="M 160.3,442.6 H 5.6 C 2.5,442.6 0,440.1 0,437 c 0,0 0,0 0,0 V 302.5 c 0,-3.1 2.5,-5.6 5.7,-5.6 h 154.8 c 3.1,0 5.6,2.5 5.6,5.6 V 437 c -0.1,3.1 -2.6,5.6 -5.8,5.6 0,0 0,0 0,0 z"
   id="path4"
   inkscape:connector-curvature="0"
   style="fill:#d5e0e0" />
<path
   class="st1"
   d="M 146.2,433 H 19.1 c -4.1,-0.3 -7.4,-3.8 -7.4,-7.9 v -84.2 c 0,-4.4 3.5,-7.9 7.9,-7.9 h 126.5 c 4.4,0 7.9,3.5 7.9,7.9 v 0 84.2 c -0.2,4.2 -3.5,7.6 -7.8,7.9 z"
   id="path6"
   inkscape:connector-curvature="0"
   style="fill:#ffffff" />
<circle
   class="st2"
   cx="15.799999"
   cy="313.79999"
   r="3.5"
   id="circle8"
   style="fill:#565e66" />
<circle
   class="st2"
   cx="27.6"
   cy="313.79999"
   r="3.5"
   id="circle10"
   style="fill:#565e66" />
<circle
   class="st2"
   cx="39.900002"
   cy="313.79999"
   r="3.5"
   id="circle12"
   style="fill:#565e66" />
<line
   class="st3"
   x1="67.700005"
   y1="313.79999"
   x2="138.89999"
   y2="313.79999"
   id="line14"
   style="fill:none;stroke:#565e66;stroke-width:6;stroke-linecap:round;stroke-linejoin:round" />
<path
   class="st4"
   d="m 108.1,357.8 c -5.2,-5.2 -13.7,-5.2 -18.9,0 0,0 0,0 0,0 l -10.7,10.7 -1.4,1.4 c -1.2,1.2 -2.2,2.7 -2.9,4.3 0,0 0,0 0,0.1 -0.8,2 -1.1,4.1 -0.9,6.3 v 0 c 0.3,3.1 1.6,6 3.8,8.2 0.9,0.9 1.9,1.6 3,2.3 l 1.7,-1.8 c 0.6,-0.6 1,-1.4 1,-2.3 v 0 c -0.3,-0.1 -0.7,-0.3 -1,-0.5 -0.5,-0.3 -0.9,-0.7 -1.3,-1.1 -0.7,-0.7 -1.3,-1.5 -1.7,-2.4 -0.7,-1.5 -1,-3.1 -0.8,-4.7 v -0.1 c 0.2,-1.8 1.1,-3.5 2.3,-4.9 l 0.1,-0.1 4,-4 8,-8 c 0.3,-0.3 0.6,-0.6 1,-0.9 l 0.3,-0.2 c 2.9,-1.9 6.6,-1.9 9.4,0 0.2,0.2 0.5,0.3 0.7,0.5 0.2,0.2 0.4,0.4 0.6,0.6 3.3,3.3 3.3,8.7 0,12 0,0 0,0 0,0 l -8,8 c 0.5,1.7 0.8,3.6 0.8,5.4 0,0.2 0,0.5 0,0.7 l 10.7,-10.6 c 5.2,-5.2 5.3,-13.6 0.1,-18.9 0.2,0.1 0.2,0 0.1,0 z"
   id="path16"
   inkscape:connector-curvature="0"
   style="fill:#009ceb" />
<path
   class="st4"
   d="m 92.6,385.4 c -0.2,-1.8 -0.7,-3.6 -1.6,-5.2 -0.6,-1.1 -1.4,-2.1 -2.2,-3 -0.9,-0.9 -1.9,-1.6 -3,-2.2 l -1.7,1.7 c -0.6,0.6 -1,1.4 -1,2.3 0.4,0.2 0.7,0.4 1,0.6 0.2,0.2 0.5,0.3 0.7,0.5 0.2,0.2 0.4,0.4 0.6,0.6 0.7,0.7 1.2,1.4 1.6,2.3 0.7,1.5 1,3.1 0.8,4.8 v 0.1 c -0.2,1.8 -1.1,3.5 -2.3,4.9 l -0.1,0.1 -4,4.1 -8,8 c -0.3,0.3 -0.6,0.6 -1,0.9 -0.1,0.1 -0.2,0.2 -0.3,0.2 -2.9,1.8 -6.5,1.8 -9.4,0 -0.5,-0.3 -0.9,-0.7 -1.4,-1.1 -3.3,-3.3 -3.3,-8.7 0,-12.1 l 8,-8 c -0.5,-1.7 -0.8,-3.6 -0.8,-5.4 0,-0.2 0,-0.5 0,-0.7 l -10.6,10.7 c -5.2,5.2 -5.3,13.6 -0.1,18.9 0,0 0,0 0.1,0.1 5.2,5.2 13.7,5.2 18.9,0 0,0 0,0 0,0 l 10.7,-10.7 1.4,-1.4 c 1.3,-1.2 2.2,-2.7 2.9,-4.4 0,0 0,0 0,-0.1 0.6,-2.2 0.9,-4.3 0.8,-6.5 -0.1,0 0,0 0,0 z"
   id="path18"
   inkscape:connector-curvature="0"
   style="fill:#009ceb" />
<path
   class="st0"
   d="M 350.2,442.6 H 195.4 c -3.1,0 -5.6,-2.5 -5.6,-5.6 0,0 0,0 0,0 V 302.5 c 0,-3.1 2.5,-5.6 5.6,-5.6 h 154.8 c 3.1,0 5.6,2.5 5.6,5.6 V 437 c 0.1,3.1 -2.5,5.6 -5.6,5.6 0,0 0,0 0,0 z"
   id="path20"
   inkscape:connector-curvature="0"
   style="fill:#d5e0e0" />
<path
   class="st1"
   d="M 336.1,433 H 209 c -4.1,-0.3 -7.4,-3.8 -7.3,-7.9 v -84.2 c 0,-4.4 3.5,-7.9 7.9,-7.9 h 126.5 c 4.4,0 7.9,3.5 7.9,7.9 v 0 84.2 c -0.3,4.2 -3.7,7.6 -7.9,7.9 z"
   id="path22"
   inkscape:connector-curvature="0"
   style="fill:#ffffff" />
<circle
   class="st2"
   cx="205.7"
   cy="313.79999"
   r="3.5"
   id="circle24"
   style="fill:#565e66" />
<circle
   class="st2"
   cx="217.5"
   cy="313.79999"
   r="3.5"
   id="circle26"
   style="fill:#565e66" />
<circle
   class="st2"
   cx="229.79999"
   cy="313.79999"
   r="3.5"
   id="circle28"
   style="fill:#565e66" />
<line
   class="st3"
   x1="257.60001"
   y1="313.79999"
   x2="328.79999"
   y2="313.79999"
   id="line30"
   style="fill:none;stroke:#565e66;stroke-width:6;stroke-linecap:round;stroke-linejoin:round" />
<path
   class="st4"
   d="m 298,357.8 c -5.2,-5.2 -13.7,-5.2 -18.9,0 0,0 0,0 0,0 l -10.7,10.7 -1.4,1.4 c -1.3,1.2 -2.2,2.7 -2.9,4.3 0,0 0,0 0,0.1 -0.8,2 -1.1,4.1 -0.9,6.3 v 0 c 0.2,1.8 0.7,3.6 1.6,5.2 0.6,1.1 1.3,2.1 2.2,3 0.9,0.9 1.9,1.6 3,2.3 l 1.7,-1.8 c 0.6,-0.6 1,-1.4 1,-2.3 v 0 c -0.3,-0.1 -0.7,-0.3 -1,-0.5 -0.5,-0.3 -0.9,-0.7 -1.3,-1.1 -0.7,-0.7 -1.2,-1.5 -1.6,-2.3 -0.7,-1.5 -1,-3.1 -0.8,-4.7 v -0.1 c 0.2,-1.8 1.1,-3.5 2.4,-4.9 l 0.1,-0.1 4,-4 8,-8 c 0.3,-0.3 0.6,-0.6 1,-0.9 0.1,-0.1 0.2,-0.2 0.3,-0.2 2.9,-1.9 6.6,-1.9 9.4,0 0.2,0.2 0.5,0.3 0.7,0.5 0.2,0.2 0.4,0.4 0.6,0.6 3.3,3.3 3.3,8.7 0,12 0,0 0,0 0,0 l -8,8 c 0.5,1.7 0.8,3.6 0.8,5.4 0,0.2 0,0.5 0,0.7 L 298,376.7 c 5.2,-5.2 5.3,-13.6 0.1,-18.9 0,0.1 -0.1,0 -0.1,0 z"
   id="path32"
   inkscape:connector-curvature="0"
   style="fill:#009ceb" />
<path
   class="st4"
   d="m 282.4,385.4 c -0.2,-1.8 -0.7,-3.6 -1.6,-5.2 -0.6,-1.1 -1.3,-2.1 -2.2,-3 -0.9,-0.9 -1.9,-1.6 -3,-2.2 l -1.7,1.8 c -0.6,0.6 -1,1.4 -1,2.3 0.3,0.2 0.7,0.4 1,0.6 l 0.7,0.5 c 0.2,0.2 0.4,0.4 0.6,0.6 0.7,0.7 1.2,1.4 1.6,2.3 0.7,1.5 1,3.1 0.8,4.8 v 0.1 c -0.2,1.8 -1.1,3.5 -2.4,4.9 l -0.1,0.1 -4.1,4.1 -8,8 c -0.3,0.3 -0.6,0.6 -1,0.9 -0.1,0.1 -0.2,0.2 -0.3,0.2 -2.9,1.8 -6.5,1.8 -9.4,0 -0.5,-0.3 -0.9,-0.7 -1.3,-1.1 -3.3,-3.3 -3.3,-8.7 0,-12.1 l 8,-8 c -0.5,-1.7 -0.8,-3.6 -0.8,-5.4 0,-0.2 0,-0.5 0,-0.7 l -10.7,10.7 c -5.2,5.2 -5.2,13.7 0,18.9 0,0 0,0 0,0 5.2,5.2 13.7,5.2 18.9,0 0,0 0,0 0,0 l 10.7,-10.7 1.4,-1.4 c 1.2,-1.2 2.2,-2.7 2.9,-4.3 0,0 0,0 0,-0.1 1,-2.2 1.3,-4.4 1,-6.6 0.1,0.1 0.1,0 0,0 z"
   id="path34"
   inkscape:connector-curvature="0"
   style="fill:#009ceb" />
<path
   class="st0"
   d="M 540.1,442.6 H 385.3 c -3.1,0 -5.6,-2.5 -5.6,-5.6 0,0 0,0 0,0 V 302.5 c 0,-3.1 2.5,-5.6 5.6,-5.6 0,0 0,0 0,0 h 154.8 c 3.1,0 5.7,2.5 5.7,5.6 0,0 0,0 0,0 V 437 c -0.1,3.1 -2.6,5.6 -5.7,5.6 0,0 0,0 0,0 z"
   id="path36"
   inkscape:connector-curvature="0"
   style="fill:#d5e0e0" />
<path
   class="st1"
   d="M 526,433 H 398.9 c -4.1,-0.3 -7.4,-3.8 -7.3,-7.9 v -84.2 c 0,-4.4 3.5,-7.9 7.9,-7.9 H 526 c 4.4,0 7.9,3.5 7.9,7.9 v 0 84.2 c -0.3,4.2 -3.7,7.6 -7.9,7.9 z"
   id="path38"
   inkscape:connector-curvature="0"
   style="fill:#ffffff" />
<circle
   class="st2"
   cx="395.60001"
   cy="313.79999"
   r="3.5"
   id="circle40"
   style="fill:#565e66" />
<circle
   class="st2"
   cx="406.89999"
   cy="313.79999"
   r="3.5"
   id="circle42"
   style="fill:#565e66" />
<circle
   class="st2"
   cx="419.69998"
   cy="313.79999"
   r="3.5"
   id="circle44"
   style="fill:#565e66" />
<line
   class="st3"
   x1="447.39999"
   y1="313.79999"
   x2="518.60004"
   y2="313.79999"
   id="line46"
   style="fill:none;stroke:#565e66;stroke-width:6;stroke-linecap:round;stroke-linejoin:round" />
<path
   class="st4"
   d="m 487.9,357.8 c -5.2,-5.2 -13.7,-5.2 -18.9,0 0,0 0,0 0,0 l -10.7,10.7 -1.4,1.4 c -1.3,1.2 -2.2,2.7 -2.9,4.3 0,0 0,0 0,0.1 -0.8,2 -1.1,4.1 -0.9,6.3 v 0 c 0.2,1.8 0.7,3.6 1.7,5.2 0.6,1.1 1.3,2.1 2.2,3 0.9,0.9 1.9,1.6 3,2.3 l 1.8,-1.8 c 0.6,-0.6 1,-1.4 1,-2.3 v 0 c -0.3,-0.1 -0.7,-0.3 -1,-0.5 -0.5,-0.3 -0.9,-0.7 -1.3,-1.1 -0.7,-0.7 -1.2,-1.5 -1.6,-2.3 -0.7,-1.5 -1,-3.1 -0.8,-4.7 v -0.1 c 0.2,-1.8 1.1,-3.5 2.4,-4.9 l 0.1,-0.1 4,-4 8,-8 c 0.3,-0.3 0.6,-0.6 1,-0.9 l 0.3,-0.2 c 1.4,-0.9 3,-1.4 4.7,-1.4 1.7,0 3.3,0.5 4.7,1.4 l 0.7,0.5 c 0.2,0.2 0.4,0.4 0.6,0.6 3.3,3.3 3.3,8.7 0,12 l -8,8 c 0.5,1.7 0.8,3.6 0.8,5.4 0,0.2 0,0.5 0,0.7 l 10.5,-10.6 c 5.2,-5.2 5.3,-13.6 0.1,-18.9 0,0 -0.1,-0.1 -0.1,-0.1 z"
   id="path48"
   inkscape:connector-curvature="0"
   style="fill:#009ceb" />
<path
   class="st4"
   d="m 472.3,385.4 c -0.3,-3.1 -1.7,-6 -3.9,-8.2 -0.9,-0.9 -1.9,-1.6 -3,-2.2 l -1.8,1.7 c -0.6,0.6 -1,1.4 -1,2.3 0.3,0.2 0.7,0.4 1,0.6 l 0.7,0.5 c 0.2,0.2 0.4,0.4 0.6,0.6 0.7,0.7 1.2,1.4 1.6,2.3 0.7,1.5 1,3.1 0.8,4.8 v 0.1 c -0.2,1.8 -1.1,3.5 -2.4,4.9 l -0.1,0.1 -4,4.1 -8,8 c -0.3,0.3 -0.6,0.6 -1,0.9 -0.1,0.1 -0.2,0.2 -0.3,0.2 -2.9,1.8 -6.5,1.8 -9.4,0 -0.5,-0.3 -1,-0.7 -1.4,-1.1 -3.3,-3.3 -3.3,-8.7 0,-12.1 l 8,-8 c -0.5,-1.7 -0.8,-3.6 -0.8,-5.4 0,-0.2 0,-0.5 0,-0.7 l -10.7,10.7 c -5.2,5.2 -5.2,13.7 0,18.9 0,0 0,0 0,0 5.2,5.2 13.7,5.2 18.9,0 0,0 0,0 0,0 l 10.7,-10.7 1.4,-1.4 c 1.2,-1.2 2.2,-2.7 2.9,-4.3 0,0 0,0 0,-0.1 1.1,-2.1 1.4,-4.3 1.2,-6.5 0,0.1 0.1,0 0,0 z"
   id="path50"
   inkscape:connector-curvature="0"
   style="fill:#009ceb" />
<path
   class="st0"
   d="M 350.2,145.7 H 195.4 c -3.1,0 -5.6,-2.5 -5.6,-5.6 V 5.6 c 0,-3.1 2.5,-5.6 5.6,-5.6 0,0 0,0 0,0 h 154.8 c 3.1,0 5.7,2.5 5.7,5.6 0,0 0,0 0,0.1 v 134.4 c 0,3.1 -2.5,5.6 -5.7,5.6 0,0 0,0 0,0 z"
   id="path52"
   inkscape:connector-curvature="0"
   style="fill:#d5e0e0" />
<path
   class="st1"
   d="M 336.1,136.1 H 209 c -4.1,-0.3 -7.4,-3.7 -7.3,-7.9 V 44.1 c 0,-4.4 3.5,-7.9 7.9,-7.9 h 126.5 c 4.4,0 7.9,3.5 7.9,7.9 v 0 0 84.2 c -0.3,4.2 -3.7,7.6 -7.9,7.8 z"
   id="path54"
   inkscape:connector-curvature="0"
   style="fill:#ffffff" />
<circle
   class="st2"
   cx="205.7"
   cy="16.9"
   r="3.5"
   id="circle56"
   style="fill:#565e66" />
<circle
   class="st2"
   cx="217.5"
   cy="16.9"
   r="3.5"
   id="circle58"
   style="fill:#565e66" />
<circle
   class="st2"
   cx="229.79999"
   cy="16.9"
   r="3.5"
   id="circle60"
   style="fill:#565e66" />
<rect
   x="212.89999"
   y="45.200001"
   class="st5"
   width="119.2"
   height="31.9"
   id="rect62"
   style="fill:#4dbdeb" />
<rect
   x="212.89999"
   y="88.700005"
   class="st5"
   width="37.299999"
   height="37.299999"
   id="rect64"
   style="fill:#4dbdeb" />
<line
   class="st6"
   x1="262.10001"
   y1="90.900002"
   x2="328.19998"
   y2="90.900002"
   id="line66"
   style="fill:none;stroke:#b1b8b9;stroke-width:6;stroke-linecap:round;stroke-linejoin:round" />
<line
   class="st6"
   x1="262.10001"
   y1="107.9"
   x2="328.19998"
   y2="107.9"
   id="line68"
   style="fill:none;stroke:#b1b8b9;stroke-width:6;stroke-linecap:round;stroke-linejoin:round" />
<line
   class="st6"
   x1="262.10001"
   y1="122.60001"
   x2="328.19998"
   y2="122.60001"
   id="line70"
   style="fill:none;stroke:#b1b8b9;stroke-width:6;stroke-linecap:round;stroke-linejoin:round" />
<line
   class="st3"
   x1="257.60001"
   y1="16.9"
   x2="328.79999"
   y2="16.9"
   id="line72"
   style="fill:none;stroke:#565e66;stroke-width:6;stroke-linecap:round;stroke-linejoin:round" />








<line
   class="st7"
   x1="272.89999"
   y1="264.59998"
   x2="272.89999"
   y2="166.60001"
   id="line90"
   style="fill:none;stroke:#53bce7;stroke-width:4;stroke-linecap:round;stroke-dasharray:8.86" />
<polyline
   id="Shape"
   class="st8"
   points="282.1,272.7 273.9,283.6 265.7,272.5 "
   style="fill:none;stroke:#4dbdeb;stroke-width:4;stroke-linecap:round;stroke-miterlimit:10"
   transform="translate(-1.1,-1.2)" />
<line
   class="st7"
   x1="96.800003"
   y1="263.19998"
   x2="190.79999"
   y2="159.10001"
   id="line93"
   style="fill:none;stroke:#53bce7;stroke-width:4;stroke-linecap:round;stroke-dasharray:8.86" />
<polyline
   id="Shape-2"
   class="st8"
   points="97.7,277.3 84.1,279.2 86.2,265.6 "
   style="fill:none;stroke:#4dbdeb;stroke-width:4;stroke-linecap:round;stroke-miterlimit:10"
   transform="translate(-1.1,-1.2)" />
<line
   class="st7"
   x1="448.79999"
   y1="263.19998"
   x2="354.89999"
   y2="159.10001"
   id="line96"
   style="fill:none;stroke:#53bce7;stroke-width:4;stroke-linecap:round;stroke-dasharray:8.86" />
<polyline
   id="Shape-3"
   class="st8"
   points="450.1,277.3 463.7,279.2 461.6,265.6 "
   style="fill:none;stroke:#4dbdeb;stroke-width:4;stroke-linecap:round;stroke-miterlimit:10"
   transform="translate(-1.1,-1.2)" />


<g
   id="g982"
   transform="translate(-141.1,-1.2)"><path
     id="path74"
     d="M 873.3,443.8 H 718.6 c -3.1,0 -5.6,-2.5 -5.7,-5.6 0,0 0,0 0,0 V 303.7 c 0,-3.1 2.5,-5.6 5.7,-5.6 v 0 h 154.8 c 3.1,0 5.7,2.5 5.7,5.6 0,0 0,0 0,0 v 134.5 c -0.1,3.1 -2.6,5.6 -5.8,5.6 0.1,0 0.1,0 0,0 z"
     class="st0"
     inkscape:connector-curvature="0"
     style="fill:#d5e0e0" /><path
     id="path76"
     d="M 859.2,434.2 H 732.1 c -4.1,-0.3 -7.4,-3.8 -7.3,-7.9 v -84.2 c 0,-4.4 3.5,-7.9 7.9,-7.9 h 126.5 c 4.4,0 7.9,3.5 7.9,7.9 v 0 84.2 c -0.2,4.2 -3.6,7.6 -7.9,7.9 z"
     class="st1"
     inkscape:connector-curvature="0"
     style="fill:#ffffff" /><circle
     id="circle78"
     r="3.5"
     cy="315"
     cx="728.79999"
     class="st2"
     style="fill:#565e66" /><circle
     id="circle80"
     r="3.5"
     cy="315"
     cx="740.59998"
     class="st2"
     style="fill:#565e66" /><circle
     id="circle82"
     r="3.5"
     cy="315"
     cx="752.90002"
     class="st2"
     style="fill:#565e66" /><line
     id="line84"
     y2="315"
     x2="851.90002"
     y1="315"
     x1="780.70001"
     class="st3"
     style="fill:none;stroke:#565e66;stroke-width:6;stroke-linecap:round;stroke-linejoin:round" /><path
     id="path86"
     d="m 821.1,359 c -5.2,-5.2 -13.7,-5.2 -18.9,0 0,0 0,0 0,0 l -10.7,10.7 -1.4,1.4 c -1.3,1.2 -2.2,2.7 -2.9,4.3 0,0 0,0 0,0.1 -0.8,2 -1.1,4.1 -0.9,6.3 v 0 c 0.3,3.1 1.7,6 3.9,8.2 0.9,0.9 1.9,1.6 3,2.3 l 1.7,-1.8 c 0.6,-0.6 1,-1.4 1,-2.3 v 0 c -0.3,-0.1 -0.7,-0.3 -1,-0.5 -0.5,-0.3 -0.9,-0.7 -1.3,-1.1 -0.7,-0.7 -1.2,-1.5 -1.7,-2.3 -0.7,-1.5 -1,-3.1 -0.8,-4.7 v -0.1 c 0.2,-1.8 1.1,-3.5 2.3,-4.9 l 0.1,-0.1 4,-4 8,-8 c 0.3,-0.3 0.6,-0.6 1,-0.9 l 0.3,-0.2 c 1.4,-0.9 3,-1.4 4.7,-1.4 1.7,0 3.3,0.5 4.7,1.4 0.2,0.2 0.5,0.3 0.7,0.5 0.2,0.2 0.4,0.4 0.6,0.6 3.3,3.3 3.3,8.7 0,12 0,0 0,0 0,0 l -8,8 c 0.5,1.7 0.8,3.6 0.8,5.4 0,0.2 0,0.5 0,0.7 L 820.9,378 c 5.2,-5.2 5.3,-13.6 0.1,-18.9 0.2,0 0.2,-0.1 0.1,-0.1 z"
     class="st4"
     inkscape:connector-curvature="0"
     style="fill:#009ceb" /><path
     id="path88"
     d="m 805.6,386.6 c -0.2,-1.8 -0.7,-3.6 -1.6,-5.2 -0.6,-1.1 -1.3,-2.1 -2.2,-3 -0.9,-0.9 -1.9,-1.6 -3,-2.2 l -1.7,1.8 c -0.6,0.6 -1,1.4 -1,2.3 0.3,0.2 0.7,0.4 1,0.6 0.2,0.2 0.5,0.3 0.7,0.5 0.2,0.2 0.4,0.4 0.6,0.6 0.7,0.7 1.2,1.4 1.6,2.3 0.7,1.5 1,3.1 0.8,4.8 v 0.1 c -0.2,1.8 -1.1,3.5 -2.3,4.9 l -0.1,0.1 -4,4.1 -8,8 c -0.3,0.3 -0.6,0.6 -1,0.9 -0.1,0.1 -0.2,0.2 -0.3,0.2 -2.9,1.8 -6.5,1.8 -9.4,0 -0.5,-0.3 -1,-0.7 -1.4,-1.1 -3.3,-3.3 -3.3,-8.7 0,-12.1 l 8,-8 c -0.5,-1.7 -0.8,-3.6 -0.8,-5.4 0,-0.2 0,-0.5 0,-0.7 l -10.7,10.7 c -5.2,5.2 -5.2,13.7 0,18.9 0,0 0,0 0,0 5.2,5.2 13.7,5.2 18.9,0 0,0 0,0 0,0 l 10.7,-10.7 1.4,-1.4 c 1.2,-1.2 2.2,-2.7 2.9,-4.3 0,0 0,0 0,-0.1 0.8,-2.2 1.1,-4.4 0.9,-6.6 0,0.1 0,0 0,0 z"
     class="st4"
     inkscape:connector-curvature="0"
     style="fill:#009ceb" /><g
     id="g119"
     class="st9"
     style="enable-background:new">
	<path
   id="path99"
   d="m 730.2,267.9 -6.1,15 h -1.8 l -6.1,-15 h 1.6 c 0.2,0 0.3,0 0.4,0.1 0.1,0.1 0.2,0.2 0.3,0.3 l 4.2,10.6 c 0.1,0.2 0.2,0.5 0.3,0.8 0.1,0.3 0.2,0.6 0.2,0.9 0.1,-0.3 0.1,-0.6 0.2,-0.9 0.1,-0.3 0.2,-0.5 0.3,-0.8 l 4.2,-10.6 c 0,-0.1 0.1,-0.2 0.2,-0.3 0.1,-0.1 0.3,-0.2 0.4,-0.2 h 1.7 z"
   class="st10"
   inkscape:connector-curvature="0"
   style="fill:#272733" />
	<path
   id="path101"
   d="m 734.1,268.9 c 0,0.2 0,0.4 -0.1,0.5 -0.1,0.2 -0.2,0.3 -0.3,0.4 -0.1,0.1 -0.3,0.2 -0.4,0.3 -0.2,0.1 -0.3,0.1 -0.5,0.1 -0.2,0 -0.4,0 -0.5,-0.1 -0.2,-0.1 -0.3,-0.2 -0.4,-0.3 -0.1,-0.1 -0.2,-0.3 -0.3,-0.4 -0.1,-0.2 -0.1,-0.3 -0.1,-0.5 0,-0.2 0,-0.4 0.1,-0.5 0.1,-0.2 0.2,-0.3 0.3,-0.4 0.1,-0.1 0.3,-0.2 0.4,-0.3 0.2,-0.1 0.3,-0.1 0.5,-0.1 0.2,0 0.4,0 0.5,0.1 0.2,0.1 0.3,0.2 0.4,0.3 0.1,0.1 0.2,0.3 0.3,0.4 0.1,0.1 0.1,0.3 0.1,0.5 z m -0.4,3.4 v 10.6 h -1.9 v -10.6 z"
   class="st10"
   inkscape:connector-curvature="0"
   style="fill:#272733" />
	<path
   id="path103"
   d="m 738.6,274.4 c 0.3,-0.7 0.7,-1.3 1.2,-1.7 0.5,-0.4 1.1,-0.6 1.8,-0.6 0.2,0 0.4,0 0.6,0.1 0.2,0 0.4,0.1 0.6,0.2 l -0.1,1.4 c 0,0.2 -0.1,0.3 -0.3,0.3 -0.1,0 -0.2,0 -0.4,-0.1 -0.2,0 -0.4,-0.1 -0.6,-0.1 -0.3,0 -0.6,0 -0.9,0.1 -0.3,0.1 -0.5,0.2 -0.7,0.4 -0.2,0.2 -0.4,0.4 -0.6,0.7 -0.2,0.3 -0.3,0.6 -0.4,1 v 6.7 h -1.9 v -10.6 h 1.1 c 0.2,0 0.3,0 0.4,0.1 0.1,0.1 0.1,0.2 0.2,0.4 z"
   class="st10"
   inkscape:connector-curvature="0"
   style="fill:#272733" />
	<path
   id="path105"
   d="m 747.7,283.1 c -0.8,0 -1.5,-0.2 -1.9,-0.7 -0.4,-0.5 -0.7,-1.1 -0.7,-2 v -6.5 h -1.3 c -0.1,0 -0.2,0 -0.3,-0.1 -0.1,-0.1 -0.1,-0.2 -0.1,-0.3 v -0.7 l 1.7,-0.2 0.4,-3.3 c 0,-0.1 0.1,-0.2 0.1,-0.3 0,-0.1 0.2,-0.1 0.3,-0.1 h 0.9 v 3.7 h 3.1 v 1.4 h -3.1 v 6.4 c 0,0.4 0.1,0.8 0.3,1 0.2,0.2 0.5,0.3 0.8,0.3 0.2,0 0.4,0 0.5,-0.1 0.1,-0.1 0.3,-0.1 0.4,-0.2 0.1,-0.1 0.2,-0.1 0.3,-0.2 0.1,-0.1 0.1,-0.1 0.2,-0.1 0.1,0 0.2,0.1 0.3,0.2 l 0.5,0.9 c -0.3,0.3 -0.7,0.5 -1.2,0.7 -0.3,0.1 -0.7,0.2 -1.2,0.2 z"
   class="st10"
   inkscape:connector-curvature="0"
   style="fill:#272733" />
	<path
   id="path107"
   d="m 760.7,272.3 v 10.6 h -1.1 c -0.3,0 -0.4,-0.1 -0.5,-0.4 l -0.1,-1.1 c -0.5,0.5 -1,0.9 -1.6,1.2 -0.6,0.3 -1.2,0.5 -2,0.5 -0.6,0 -1.1,-0.1 -1.5,-0.3 -0.4,-0.2 -0.8,-0.5 -1.1,-0.8 -0.3,-0.3 -0.5,-0.8 -0.7,-1.3 -0.2,-0.5 -0.2,-1 -0.2,-1.6 v -6.8 h 1.9 v 6.8 c 0,0.8 0.2,1.4 0.6,1.9 0.4,0.4 0.9,0.7 1.7,0.7 0.6,0 1.1,-0.1 1.5,-0.4 0.4,-0.3 0.9,-0.6 1.3,-1.1 v -7.8 h 1.8 z"
   class="st10"
   inkscape:connector-curvature="0"
   style="fill:#272733" />
	<path
   id="path109"
   d="m 763.4,273.8 c 0.6,-0.6 1.2,-1 1.9,-1.3 0.7,-0.3 1.4,-0.4 2.3,-0.4 0.6,0 1.1,0.1 1.6,0.3 0.5,0.2 0.9,0.5 1.2,0.8 0.3,0.4 0.6,0.8 0.7,1.3 0.2,0.5 0.2,1 0.2,1.6 v 6.8 h -0.8 c -0.2,0 -0.3,0 -0.4,-0.1 -0.1,-0.1 -0.2,-0.2 -0.2,-0.4 l -0.2,-1 c -0.3,0.3 -0.6,0.5 -0.8,0.7 -0.3,0.2 -0.5,0.4 -0.8,0.5 -0.3,0.1 -0.6,0.2 -0.9,0.3 -0.3,0.1 -0.7,0.1 -1.1,0.1 -0.4,0 -0.8,-0.1 -1.2,-0.2 -0.4,-0.1 -0.7,-0.3 -1,-0.5 -0.3,-0.2 -0.5,-0.5 -0.6,-0.9 -0.1,-0.4 -0.2,-0.8 -0.2,-1.3 0,-0.4 0.1,-0.8 0.3,-1.2 0.2,-0.4 0.6,-0.7 1.1,-1 0.5,-0.3 1.2,-0.5 2,-0.7 0.8,-0.2 1.9,-0.3 3.1,-0.3 v -0.8 c 0,-0.8 -0.2,-1.5 -0.5,-1.9 -0.4,-0.4 -0.9,-0.6 -1.6,-0.6 -0.5,0 -0.8,0.1 -1.2,0.2 -0.3,0.1 -0.6,0.2 -0.8,0.4 -0.2,0.2 -0.4,0.3 -0.6,0.4 -0.2,0.1 -0.3,0.2 -0.5,0.2 -0.1,0 -0.2,0 -0.3,-0.1 -0.1,-0.1 -0.2,-0.1 -0.2,-0.2 z m 6,4.3 c -0.9,0 -1.6,0.1 -2.2,0.2 -0.6,0.1 -1.1,0.2 -1.5,0.4 -0.4,0.2 -0.7,0.4 -0.8,0.6 -0.2,0.2 -0.3,0.5 -0.3,0.8 0,0.3 0,0.5 0.1,0.7 0.1,0.2 0.2,0.4 0.4,0.5 0.2,0.1 0.3,0.2 0.6,0.3 0.3,0.1 0.4,0.1 0.7,0.1 0.3,0 0.6,0 0.9,-0.1 0.3,-0.1 0.5,-0.2 0.8,-0.3 0.2,-0.1 0.5,-0.3 0.7,-0.5 0.2,-0.2 0.4,-0.4 0.6,-0.6 z"
   class="st10"
   inkscape:connector-curvature="0"
   style="fill:#272733" />
	<path
   id="path111"
   d="m 776,267.4 v 15.5 h -1.9 v -15.5 z"
   class="st10"
   inkscape:connector-curvature="0"
   style="fill:#272733" />
	<path
   id="path113"
   d="m 781,267.4 v 15.5 h -1.9 v -15.5 z"
   class="st10"
   inkscape:connector-curvature="0"
   style="fill:#272733" />
	<path
   id="path115"
   d="m 793.2,272.3 -5.9,13.8 c -0.1,0.1 -0.1,0.3 -0.2,0.3 -0.1,0.1 -0.2,0.1 -0.4,0.1 h -1.4 l 1.9,-4.2 -4.4,-10 h 1.6 c 0.2,0 0.3,0 0.4,0.1 0.1,0.1 0.2,0.2 0.2,0.3 l 2.8,6.7 c 0.1,0.3 0.2,0.6 0.3,0.9 0.1,-0.3 0.2,-0.6 0.3,-0.9 l 2.8,-6.7 c 0,-0.1 0.1,-0.2 0.2,-0.3 0.1,-0.1 0.2,-0.1 0.3,-0.1 z"
   class="st10"
   inkscape:connector-curvature="0"
   style="fill:#272733" />
	<path
   id="path117"
   d="m 802.1,268.9 c 0,0.2 0,0.4 -0.1,0.5 -0.1,0.2 -0.2,0.3 -0.3,0.4 -0.1,0.1 -0.3,0.2 -0.4,0.3 -0.2,0.1 -0.3,0.1 -0.5,0.1 -0.2,0 -0.4,0 -0.5,-0.1 -0.2,-0.1 -0.3,-0.2 -0.4,-0.3 -0.1,-0.1 -0.2,-0.3 -0.3,-0.4 -0.1,-0.2 -0.1,-0.3 -0.1,-0.5 0,-0.2 0,-0.4 0.1,-0.5 0.1,-0.2 0.2,-0.3 0.3,-0.4 0.1,-0.1 0.3,-0.2 0.4,-0.3 0.2,-0.1 0.3,-0.1 0.5,-0.1 0.2,0 0.4,0 0.5,0.1 0.2,0.1 0.3,0.2 0.4,0.3 0.1,0.1 0.2,0.3 0.3,0.4 0,0.2 0.1,0.3 0.1,0.5 z m -0.4,3.4 v 10.6 h -1.9 v -10.6 z"
   class="st10"
   inkscape:connector-curvature="0"
   style="fill:#272733" />
</g><g
     id="g123"
     class="st9"
     style="enable-background:new">
	<path
   id="path121"
   d="m 808.5,273.8 c 0.2,-0.3 0.5,-0.5 0.7,-0.7 0.2,-0.2 0.5,-0.4 0.8,-0.5 0.3,-0.1 0.6,-0.3 0.9,-0.3 0.3,0 0.7,-0.1 1.1,-0.1 0.6,0 1.1,0.1 1.5,0.3 0.4,0.2 0.8,0.5 1.1,0.8 0.3,0.4 0.5,0.8 0.7,1.3 0.2,0.5 0.2,1 0.2,1.6 v 6.8 h -1.9 v -6.8 c 0,-0.8 -0.2,-1.4 -0.6,-1.9 -0.4,-0.5 -0.9,-0.7 -1.7,-0.7 -0.6,0 -1.1,0.1 -1.5,0.4 -0.5,0.3 -0.9,0.6 -1.3,1.1 v 7.8 h -1.9 v -10.6 h 1.1 c 0.3,0 0.4,0.1 0.5,0.4 z"
   class="st10"
   inkscape:connector-curvature="0"
   style="fill:#272733" />
</g><g
     id="g139"
     class="st9"
     style="enable-background:new">
	<path
   id="path125"
   d="m 827.2,272.3 -4.3,10.6 h -1.7 l -4.3,-10.6 h 1.5 c 0.2,0 0.3,0 0.4,0.1 0.1,0.1 0.2,0.2 0.2,0.3 l 2.7,6.8 c 0.1,0.3 0.2,0.5 0.2,0.8 0.1,0.2 0.1,0.5 0.2,0.7 0.1,-0.2 0.1,-0.5 0.2,-0.7 0.1,-0.2 0.1,-0.5 0.2,-0.8 l 2.7,-6.8 c 0,-0.1 0.1,-0.2 0.2,-0.3 0.1,-0.1 0.2,-0.1 0.3,-0.1 z"
   class="st10"
   inkscape:connector-curvature="0"
   style="fill:#272733" />
	<path
   id="path127"
   d="m 831.3,268.9 c 0,0.2 0,0.4 -0.1,0.5 -0.1,0.2 -0.2,0.3 -0.3,0.4 -0.1,0.1 -0.3,0.2 -0.4,0.3 -0.2,0.1 -0.3,0.1 -0.5,0.1 -0.2,0 -0.4,0 -0.5,-0.1 -0.2,-0.1 -0.3,-0.2 -0.4,-0.3 -0.1,-0.1 -0.2,-0.3 -0.3,-0.4 -0.1,-0.2 -0.1,-0.3 -0.1,-0.5 0,-0.2 0,-0.4 0.1,-0.5 0.1,-0.2 0.2,-0.3 0.3,-0.4 0.1,-0.1 0.3,-0.2 0.4,-0.3 0.2,-0.1 0.3,-0.1 0.5,-0.1 0.2,0 0.4,0 0.5,0.1 0.2,0.1 0.3,0.2 0.4,0.3 0.1,0.1 0.2,0.3 0.3,0.4 0,0.2 0.1,0.3 0.1,0.5 z m -0.4,3.4 v 10.6 H 829 v -10.6 z"
   class="st10"
   inkscape:connector-curvature="0"
   style="fill:#272733" />
	<path
   id="path129"
   d="m 840.1,274 c -0.1,0.2 -0.2,0.2 -0.4,0.2 -0.1,0 -0.2,0 -0.4,-0.1 -0.2,-0.1 -0.3,-0.2 -0.5,-0.3 -0.2,-0.1 -0.4,-0.2 -0.7,-0.3 -0.3,-0.1 -0.6,-0.1 -0.9,-0.1 -0.3,0 -0.6,0 -0.9,0.1 -0.3,0.1 -0.5,0.2 -0.6,0.3 -0.2,0.1 -0.3,0.3 -0.4,0.5 -0.1,0.2 -0.1,0.4 -0.1,0.6 0,0.3 0.1,0.5 0.2,0.7 0.2,0.2 0.4,0.3 0.6,0.5 0.3,0.1 0.6,0.3 0.9,0.4 0.3,0.1 0.7,0.2 1,0.3 0.3,0.1 0.7,0.2 1,0.4 0.3,0.1 0.6,0.3 0.9,0.5 0.3,0.2 0.5,0.5 0.6,0.8 0.2,0.3 0.2,0.7 0.2,1.1 0,0.5 -0.1,0.9 -0.3,1.4 -0.2,0.4 -0.4,0.8 -0.8,1.1 -0.4,0.3 -0.8,0.5 -1.3,0.7 -0.5,0.2 -1.1,0.3 -1.7,0.3 -0.7,0 -1.4,-0.1 -2,-0.4 -0.6,-0.2 -1.1,-0.6 -1.5,-0.9 l 0.4,-0.7 c 0.1,-0.1 0.1,-0.2 0.2,-0.2 0.1,0 0.2,-0.1 0.3,-0.1 0.1,0 0.3,0 0.4,0.1 0.1,0.1 0.3,0.2 0.5,0.3 0.2,0.1 0.4,0.2 0.7,0.3 0.3,0.1 0.6,0.1 1.1,0.1 0.4,0 0.7,0 1,-0.1 0.3,-0.1 0.5,-0.2 0.7,-0.4 0.2,-0.2 0.3,-0.3 0.4,-0.6 0.1,-0.2 0.1,-0.4 0.1,-0.7 0,-0.3 -0.1,-0.5 -0.2,-0.7 -0.1,-0.2 -0.4,-0.4 -0.6,-0.5 -0.3,-0.1 -0.6,-0.3 -0.9,-0.4 -0.3,-0.1 -0.7,-0.2 -1,-0.3 -0.3,-0.1 -0.7,-0.2 -1,-0.4 -0.3,-0.1 -0.6,-0.3 -0.9,-0.5 -0.3,-0.2 -0.5,-0.5 -0.6,-0.8 -0.2,-0.3 -0.2,-0.7 -0.2,-1.2 0,-0.4 0.1,-0.8 0.3,-1.2 0.2,-0.4 0.4,-0.7 0.7,-1 0.3,-0.3 0.7,-0.5 1.2,-0.7 0.5,-0.2 1,-0.3 1.6,-0.3 0.7,0 1.3,0.1 1.9,0.3 0.6,0.2 1,0.5 1.4,0.9 z"
   class="st10"
   inkscape:connector-curvature="0"
   style="fill:#272733" />
	<path
   id="path131"
   d="m 845.4,268.9 c 0,0.2 0,0.4 -0.1,0.5 -0.1,0.2 -0.2,0.3 -0.3,0.4 -0.1,0.1 -0.3,0.2 -0.4,0.3 -0.2,0.1 -0.3,0.1 -0.5,0.1 -0.2,0 -0.4,0 -0.5,-0.1 -0.2,-0.1 -0.3,-0.2 -0.4,-0.3 -0.1,-0.1 -0.2,-0.3 -0.3,-0.4 -0.1,-0.2 -0.1,-0.3 -0.1,-0.5 0,-0.2 0,-0.4 0.1,-0.5 0.1,-0.2 0.2,-0.3 0.3,-0.4 0.1,-0.1 0.3,-0.2 0.4,-0.3 0.2,-0.1 0.3,-0.1 0.5,-0.1 0.2,0 0.4,0 0.5,0.1 0.2,0.1 0.3,0.2 0.4,0.3 0.1,0.1 0.2,0.3 0.3,0.4 0.1,0.2 0.1,0.3 0.1,0.5 z m -0.4,3.4 v 10.6 h -1.9 v -10.6 z"
   class="st10"
   inkscape:connector-curvature="0"
   style="fill:#272733" />
	<path
   id="path133"
   d="m 850,273.8 c 0.4,-0.5 1,-0.9 1.5,-1.2 0.6,-0.3 1.2,-0.5 1.9,-0.5 0.6,0 1.2,0.1 1.7,0.4 0.5,0.2 0.9,0.6 1.3,1 0.3,0.5 0.6,1 0.8,1.6 0.2,0.6 0.3,1.4 0.3,2.2 0,0.9 -0.1,1.6 -0.3,2.4 -0.2,0.7 -0.5,1.3 -0.9,1.8 -0.4,0.5 -0.9,0.9 -1.4,1.2 -0.5,0.3 -1.2,0.4 -1.9,0.4 -0.7,0 -1.3,-0.1 -1.8,-0.4 -0.5,-0.3 -0.9,-0.6 -1.3,-1.1 l -0.1,1 c -0.1,0.3 -0.2,0.4 -0.5,0.4 h -1.2 v -15.5 h 1.9 z m 0,6.5 c 0.3,0.5 0.7,0.8 1.1,1 0.4,0.2 0.9,0.3 1.3,0.3 1,0 1.8,-0.4 2.3,-1.1 0.5,-0.7 0.8,-1.8 0.8,-3.2 0,-1.3 -0.2,-2.3 -0.7,-2.9 -0.5,-0.6 -1.1,-0.9 -2,-0.9 -0.6,0 -1.1,0.1 -1.6,0.4 -0.5,0.3 -0.9,0.7 -1.3,1.2 v 5.2 z"
   class="st10"
   inkscape:connector-curvature="0"
   style="fill:#272733" />
	<path
   id="path135"
   d="m 861.8,267.4 v 15.5 h -1.9 v -15.5 z"
   class="st10"
   inkscape:connector-curvature="0"
   style="fill:#272733" />
	<path
   id="path137"
   d="m 873.4,281.4 c -0.2,0.3 -0.5,0.5 -0.8,0.7 -0.3,0.2 -0.7,0.4 -1,0.5 -0.4,0.1 -0.7,0.2 -1.1,0.3 -0.4,0.1 -0.8,0.1 -1.2,0.1 -0.7,0 -1.4,-0.1 -2,-0.4 -0.6,-0.2 -1.2,-0.6 -1.6,-1.1 -0.5,-0.5 -0.8,-1.1 -1.1,-1.8 -0.3,-0.7 -0.4,-1.5 -0.4,-2.4 0,-0.7 0.1,-1.4 0.3,-2.1 0.2,-0.6 0.6,-1.2 1,-1.7 0.4,-0.5 0.9,-0.8 1.6,-1.1 0.7,-0.3 1.3,-0.4 2.1,-0.4 0.6,0 1.2,0.1 1.8,0.3 0.5,0.2 1,0.5 1.4,0.9 0.4,0.4 0.7,0.9 0.9,1.5 0.2,0.6 0.3,1.3 0.3,2 0,0.3 0,0.5 -0.1,0.6 -0.1,0.1 -0.2,0.1 -0.4,0.1 H 866 c 0,0.7 0.1,1.3 0.3,1.8 0.2,0.5 0.4,0.9 0.7,1.2 0.3,0.3 0.6,0.6 1,0.7 0.4,0.2 0.9,0.2 1.4,0.2 0.5,0 0.9,-0.1 1.2,-0.2 0.3,-0.1 0.6,-0.2 0.9,-0.4 0.3,-0.2 0.5,-0.2 0.6,-0.4 0.2,-0.1 0.3,-0.2 0.4,-0.2 0.2,0 0.3,0.1 0.4,0.2 z m -1.5,-5 c 0,-0.4 -0.1,-0.8 -0.2,-1.2 -0.1,-0.4 -0.3,-0.7 -0.5,-0.9 -0.2,-0.2 -0.5,-0.5 -0.9,-0.6 -0.4,-0.1 -0.7,-0.2 -1.1,-0.2 -0.9,0 -1.6,0.3 -2.1,0.8 -0.5,0.5 -0.8,1.2 -1,2.2 h 5.8 z"
   class="st10"
   inkscape:connector-curvature="0"
   style="fill:#272733" />
</g></g>
</svg>