<?xml version="1.0" encoding="UTF-8" standalone="no"?>
<svg
   xmlns:dc="http://purl.org/dc/elements/1.1/"
   xmlns:cc="http://creativecommons.org/ns#"
   xmlns:rdf="http://www.w3.org/1999/02/22-rdf-syntax-ns#"
   xmlns:svg="http://www.w3.org/2000/svg"
   xmlns="http://www.w3.org/2000/svg"
   xmlns:sodipodi="http://sodipodi.sourceforge.net/DTD/sodipodi-0.dtd"
   xmlns:inkscape="http://www.inkscape.org/namespaces/inkscape"
   width="200"
   height="45"
   class="icon icon-civio"
   viewBox="0 0 200 45"
   version="1.1"
   aria-hidden="true"
   id="svg10"
   sodipodi:docname="civio.svg"
   inkscape:version="0.92.3 (2405546, 2018-03-11)">
  <metadata
     id="metadata16">
    <rdf:RDF>
      <cc:Work
         rdf:about="">
        <dc:format>image/svg+xml</dc:format>
        <dc:type
           rdf:resource="http://purl.org/dc/dcmitype/StillImage" />
      </cc:Work>
    </rdf:RDF>
  </metadata>
  <defs
     id="defs14" />
  <sodipodi:namedview
     pagecolor="#ffffff"
     bordercolor="#666666"
     borderopacity="1"
     objecttolerance="10"
     gridtolerance="10"
     guidetolerance="10"
     inkscape:pageopacity="0"
     inkscape:pageshadow="2"
     inkscape:window-width="1920"
     inkscape:window-height="1017"
     id="namedview12"
     showgrid="false"
     inkscape:zoom="1.83"
     inkscape:cx="27.322404"
     inkscape:cy="22.5"
     inkscape:window-x="-8"
     inkscape:window-y="-8"
     inkscape:window-maximized="1"
     inkscape:current-layer="g8" />
  <g
     fill-rule="evenodd"
     id="g8">
    <path
       id="p1"
       d="M188.3 0c5.56 0 10.06 4.42 10.06 9.87 0 5.45-4.5 9.87-10.06 9.87-5.55 0-10.06-4.42-10.06-9.87 0-5.45 4.5-9.87 10.06-9.87z"
       style="fill:#56ffa9;fill-opacity:1" />
    <path
       id="p2"
       d="M178.24 34.4c0-5.46 4.5-9.88 10.06-9.88s10.06 4.42 10.06 9.87c0 5.4-4.5 9.83-10.06 9.83-5.55 0-10.06-4.43-10.06-9.87"
       style="fill:#ffed6a;fill-opacity:1" />
    <path
       d="M58 1.3h12l16.9 41.6h-12z"
       id="path4"
       style="fill:#002a6d;fill-opacity:1" />
    <path
       d="M104.2 1.3h-12L75.25 42.9h12zM36.46 7C28.12-1.35 14.6-1.35 6.26 7c-8.34 8.33-8.34 21.87 0 30.2 8.33 8.34 21.86 8.34 30.2 0l-7.55-7.55c-4.13 4.17-10.9 4.17-15.1 0s-4.14-10.93 0-15.1 10.97-4.17 15.1 0L36.5 7zM154.6 29.65c-4.17 4.17-10.94 4.17-15.1 0-4.17-4.17-4.17-10.93 0-15.1 4.16-4.17 10.93-4.17 15.1 0 4.16 4.17 4.16 10.93 0 15.1M162.15 7c-8.34-8.34-21.87-8.34-30.2 0-8.35 8.33-8.35 21.87 0 30.2 8.33 8.34 21.86 8.34 30.2 0 8.33-8.33 8.33-21.87 0-30.2M43.2 42.9h10.75V1.3H43.2zm65.04 0H119V1.3h-10.76z"
       id="path6"
       style="fill:#002a6d;fill-opacity:1" />
  </g>
</svg>
